# xmcd
#
# Track frame offsets:
#	150
#	14050
#	28471
#	44736
#	59683
#	74253
#	90132
#	102802
#	118960
#	136032
#	150810
#	166105
#	184618
#	198162
#	223987
#
# Disc length: 4440
#
# Revision: 2
# Processed by: cddbd v1.5.1PL0 Copyright (c) Steve Scherf et al.
# Submitted via: audiograbber 1.83.01
# Normalized: r1:DSETVAR1
#
DISCID=d011560f
DTITLE=Various Artist - Goldene Schlagerparade 6/2004
DYEAR=2004
DGENRE=Schlager
TTITLE0=Andrea Berg - Warum
TTITLE1=Styrina - El Chico Loco
TTITLE2=Rainhard Fendrich - Engel
TTITLE3=Hanne Haller - Und hättest du die Liebe nicht
TTITLE4=Yvette - Wünsche zur Weihnachtszeit
TTITLE5=Kristina Bach - Du bist verrückt dass du mich liebst
TTITLE6=Roger Witthaker - Miteinander
TTITLE7=Gaby Albrecht - Sehnsuchtsmelodie
TTITLE8=Doris Russo - Ich fühl genau wie du
TTITLE9=Trenkwalder - Wenn i di im Arm hab
TTITLE10=Wolfgang Petry - Der erste Schnee
TTITLE11=Nina Stern - Wie ein Stern
TTITLE12=Die Ladiner - Advent es ist Advent
TTITLE13=Die Schäfer - Ich bin daheim
TTITLE14=data - Daten-CD
EXTD=
EXTT0=
EXTT1=
EXTT2=
EXTT3=
EXTT4=
EXTT5=
EXTT6=
EXTT7=
EXTT8=
EXTT9=
EXTT10=
EXTT11=
EXTT12=
EXTT13=
EXTT14=
PLAYORDER=
